<svg width="23" height="23" viewBox="0 0 23 23" fill="none" xmlns="http://www.w3.org/2000/svg">
<path d="M11.156 13.8213L8.48933 11.1547L11.156 8.488L13.8227 11.1547L11.156 13.8213ZM8.32267 6.44933L6.06667 4.19467L9.64 0.62C9.856 0.404889 10.096 0.247555 10.36 0.148C10.6258 0.0493331 10.8911 0 11.156 0C11.4209 0 11.6858 0.0493331 11.9507 0.148C12.2156 0.246666 12.4556 0.404 12.6707 0.62L16.2453 4.19333L13.9893 6.45067L11.156 3.616L8.32267 6.44933ZM4.19467 16.244L0.62 12.6707C0.404889 12.4547 0.247556 12.2147 0.148 11.9507C0.0493334 11.6849 0 11.4196 0 11.1547C0 10.8898 0.0493334 10.6249 0.148 10.36C0.246667 10.0951 0.404 9.85511 0.62 9.64L4.19333 6.06533L6.45067 8.32133L3.61733 11.1547L6.45067 13.988L4.19467 16.244ZM18.1173 16.244L15.8613 13.988L18.6947 11.1547L15.8613 8.32133L18.1173 6.06533L21.692 9.63867C21.9071 9.85467 22.0644 10.0947 22.164 10.3587C22.2627 10.6244 22.312 10.8898 22.312 11.1547C22.312 11.4196 22.2627 11.6844 22.164 11.9493C22.0653 12.2142 21.908 12.4542 21.692 12.6693L18.1173 16.244ZM9.64133 21.6907L6.06667 18.1173L8.32267 15.86L11.156 18.6933L13.9893 15.86L16.2453 18.116L12.672 21.6907C12.456 21.9058 12.216 22.0631 11.952 22.1627C11.6862 22.2613 11.4209 22.3107 11.156 22.3107C10.8911 22.3107 10.6262 22.2613 10.3613 22.1627C10.0964 22.064 9.85645 21.9067 9.64133 21.6907Z" fill="url(#paint0_linear_45_35)"/>
<defs>
<linearGradient id="paint0_linear_45_35" x1="8.86062" y1="69.6583" x2="-13.1797" y2="-23.1092" gradientUnits="userSpaceOnUse">
<stop offset="0.00961538" stop-color="#FF1414"/>
<stop offset="0.60101" stop-color="#ED2323"/>
<stop offset="0.816466" stop-color="#EA8533"/>
</linearGradient>
</defs>
</svg>
