<svg width="30" height="22" viewBox="0 0 30 22" fill="none" xmlns="http://www.w3.org/2000/svg">
<path d="M7.33333 21.3333C5.31111 21.3333 3.58356 20.6333 2.15067 19.2333C0.717778 17.8333 0.000888889 16.1222 0 14.1C0 12.3667 0.522222 10.8222 1.56667 9.46667C2.61111 8.11111 3.97778 7.24444 5.66667 6.86667C6.22222 4.82222 7.33333 3.16667 9 1.9C10.6667 0.633334 12.5556 0 14.6667 0C17.2667 0 19.4724 0.905778 21.284 2.71733C23.0956 4.52889 24.0009 6.73422 24 9.33333C25.5333 9.51111 26.8058 10.1724 27.8173 11.3173C28.8289 12.4622 29.3342 13.8009 29.3333 15.3333C29.3333 17 28.7502 18.4169 27.584 19.584C26.4178 20.7511 25.0009 21.3342 23.3333 21.3333H7.33333ZM7.33333 18.6667H23.3333C24.2667 18.6667 25.0556 18.3444 25.7 17.7C26.3444 17.0556 26.6667 16.2667 26.6667 15.3333C26.6667 14.4 26.3444 13.6111 25.7 12.9667C25.0556 12.3222 24.2667 12 23.3333 12H21.3333V9.33333C21.3333 7.48889 20.6831 5.91644 19.3827 4.616C18.0822 3.31556 16.5102 2.66578 14.6667 2.66667C12.8231 2.66756 11.2511 3.31778 9.95067 4.61733C8.65022 5.91689 8 7.48889 8 9.33333H7.33333C6.04444 9.33333 4.94444 9.78889 4.03333 10.7C3.12222 11.6111 2.66667 12.7111 2.66667 14C2.66667 15.2889 3.12222 16.3889 4.03333 17.3C4.94444 18.2111 6.04444 18.6667 7.33333 18.6667Z" fill="url(#paint0_linear_45_32)"/>
<defs>
<linearGradient id="paint0_linear_45_32" x1="11.6489" y1="66.6069" x2="-4.07481" y2="-24.3869" gradientUnits="userSpaceOnUse">
<stop offset="0.00961538" stop-color="#FF1414"/>
<stop offset="0.60101" stop-color="#ED2323"/>
<stop offset="0.816466" stop-color="#EA8533"/>
</linearGradient>
</defs>
</svg>
