<svg width="38" height="38" viewBox="0 0 38 38" fill="none" xmlns="http://www.w3.org/2000/svg">
<mask id="mask0_23_148" style="mask-type:luminance" maskUnits="userSpaceOnUse" x="0" y="0" width="38" height="38">
<path d="M0 0H38V38H0V0Z" fill="white"/>
</mask>
<g mask="url(#mask0_23_148)">
<path fill-rule="evenodd" clip-rule="evenodd" d="M0 0H38V38H0V0ZM29.0494 31.8567C27.2872 31.8567 26.2913 30.9383 25.5265 29.6875L22.6243 31.3738C23.6724 33.4448 25.8147 35.0249 29.1318 35.0249C32.5233 35.0249 35.0487 33.2643 35.0487 30.0485C35.0487 27.0671 33.3355 25.7418 30.3018 24.4388L29.4088 24.0572C27.8762 23.3922 27.2128 22.9599 27.2128 21.888C27.2128 21.0219 27.8778 20.3585 28.9228 20.3585C29.9472 20.3585 30.6074 20.7908 31.2202 21.888L34.0005 20.1036C32.8241 18.0342 31.1933 17.2441 28.9228 17.2441C25.7339 17.2441 23.693 19.2834 23.693 21.9624C23.693 24.8678 25.403 26.2437 27.9807 27.341L28.8737 27.7242C30.5029 28.4367 31.4735 28.8705 31.4735 30.0944C31.4735 31.1173 30.5283 31.8567 29.0494 31.8567ZM15.2111 31.8329C13.984 31.8329 13.4726 30.9937 12.9121 29.9963L10.0051 31.7569C10.8474 33.5397 12.5036 35.0186 15.3615 35.0186C18.5266 35.0186 20.6942 33.3355 20.6942 29.6384V17.4468H17.1238V29.5909C17.1238 31.3753 16.3827 31.8329 15.2095 31.8329" fill="url(#paint0_linear_23_148)"/>
</g>
<defs>
<linearGradient id="paint0_linear_23_148" x1="15.0907" y1="118.643" x2="-22.4508" y2="-39.3592" gradientUnits="userSpaceOnUse">
<stop offset="0.00961538" stop-color="#FF1414"/>
<stop offset="0.60101" stop-color="#ED2323"/>
<stop offset="0.816466" stop-color="#EA8533"/>
</linearGradient>
</defs>
</svg>
