<svg width="45" height="45" viewBox="0 0 45 45" fill="none" xmlns="http://www.w3.org/2000/svg">
<path d="M29.3214 8.56108L29.4264 8.62108C28.0051 9.37108 23.9439 11.788 23.9439 14.8686C23.9439 15.9073 24.5382 16.9086 25.0951 17.8498C25.5864 18.6786 26.0495 19.4567 26.0495 20.1711C26.0495 21.9655 24.3001 23.3586 23.312 23.9998L23.1245 23.8911C23.4976 23.4355 23.957 22.6723 23.957 21.8586C23.957 20.7373 23.3814 19.8411 22.7982 18.9317C22.1945 17.9923 21.5832 17.038 21.5832 15.8005C21.5832 11.503 27.4239 9.1967 29.3214 8.56108ZM21.6432 10.8336C23.9926 8.73358 26.5595 6.43858 26.5595 2.9867C26.5595 1.42483 25.9201 0.427329 25.6032 0.0279541L25.5001 0.0860791C25.5751 0.397329 25.6876 0.971079 25.6876 1.72108C25.6876 4.86358 23.0214 7.06483 20.4414 9.19858C18.0207 11.2011 15.6751 13.1398 15.6751 15.7348C15.6751 19.4567 19.3464 21.7461 20.897 22.7136L21.0151 22.7886L21.1089 22.7323C21.0251 22.6398 20.9364 22.5448 20.8426 22.4473C19.6501 21.178 17.8389 19.2523 17.8389 16.3067C17.8389 14.2386 19.6632 12.6055 21.6432 10.8336ZM20.7976 29.4111C24.1051 29.4111 26.4189 28.9367 27.4464 28.6461L29.0064 29.5461C27.5195 30.3017 24.2232 30.8773 20.7901 30.8773C16.7532 30.8773 12.3395 30.0111 12.3264 28.8561C12.317 28.2186 13.7607 27.7948 15.317 27.5211L15.4107 27.5755C15.4107 27.5755 14.8839 27.7648 14.8895 28.1998C14.897 28.8561 17.552 29.4111 20.7957 29.4111M14.1789 33.4817C14.1789 32.7167 15.752 32.3567 16.472 32.2123L16.5657 32.2686C16.442 32.3605 16.3745 32.4861 16.3745 32.593C16.3745 33.0936 18.1182 33.5511 20.792 33.5511C23.1882 33.5511 24.5195 33.2567 25.3107 33.0673L27.167 34.1417C27.0826 34.2017 25.2545 35.3511 20.7882 35.3511C17.5426 35.3511 14.1789 34.5411 14.1789 33.4817ZM30.1707 30.2417C32.3832 28.9798 34.5976 27.4873 34.7232 25.0911C34.8057 23.518 33.3601 22.3648 31.7795 22.6723L31.8639 22.4623V22.4586C32.2614 22.3386 32.7526 22.2411 33.302 22.2411C35.0701 22.2411 36.4257 23.3005 36.5982 24.7836C36.947 27.7573 32.732 29.6923 30.3714 30.358L30.1707 30.2417ZM33.8739 35.8442C33.8926 37.888 26.9401 39.103 20.7264 39.1573C15.362 39.2042 6.71262 38.1898 6.69387 36.148C6.68262 34.7361 10.4439 33.7573 12.4876 33.4761L12.7032 33.5998C12.7032 33.5998 9.65637 34.3067 9.66575 35.5911C9.677 36.8717 16.0876 37.9798 20.717 37.9405C27.8889 37.8767 32.7432 36.7086 33.317 35.1242L33.4182 35.0661C33.6282 35.2198 33.8682 35.473 33.8739 35.8442ZM12.0564 40.0067C14.7094 40.4306 17.3929 40.6344 20.0795 40.6161C31.7195 40.5148 35.0045 37.6536 35.5107 37.0311L35.5989 37.0836C35.4789 39.3486 29.3232 41.2311 21.7314 41.2967C17.867 41.3305 14.3495 40.8842 11.822 40.1436L12.0564 40.0067ZM16.9351 22.6011C14.912 22.7567 10.5676 23.3998 10.5676 24.5436C10.5676 25.4098 14.5501 26.6305 20.7901 26.6305C26.4039 26.6305 29.9476 25.5711 30.7745 25.168L29.5689 24.4648C28.7064 24.6992 25.502 25.4136 20.7901 25.4136C18.0151 25.4136 13.2339 24.9017 13.2339 24.1198C13.2339 23.4186 16.217 22.8767 17.0739 22.723L17.1282 22.7136L16.9351 22.6011Z" fill="url(#paint0_linear_23_150)"/>
<defs>
<linearGradient id="paint0_linear_23_150" x1="18.5777" y1="128.883" x2="-35.0677" y2="-34.8275" gradientUnits="userSpaceOnUse">
<stop offset="0.00961538" stop-color="#FF1414"/>
<stop offset="0.60101" stop-color="#ED2323"/>
<stop offset="0.816466" stop-color="#EA8533"/>
</linearGradient>
</defs>
</svg>
