<svg width="26" height="26" viewBox="0 0 26 26" fill="none" xmlns="http://www.w3.org/2000/svg">
<path d="M9 1H2.33333C1.97971 1 1.64057 1.14048 1.39052 1.39052C1.14048 1.64057 1 1.97971 1 2.33333V9C1 9.35362 1.14048 9.69276 1.39052 9.94281C1.64057 10.1929 1.97971 10.3333 2.33333 10.3333H9C9.35362 10.3333 9.69276 10.1929 9.94281 9.94281C10.1929 9.69276 10.3333 9.35362 10.3333 9V2.33333C10.3333 1.97971 10.1929 1.64057 9.94281 1.39052C9.69276 1.14048 9.35362 1 9 1ZM9 15.6667H2.33333C1.97971 15.6667 1.64057 15.8071 1.39052 16.0572C1.14048 16.3072 1 16.6464 1 17V23.6667C1 24.0203 1.14048 24.3594 1.39052 24.6095C1.64057 24.8595 1.97971 25 2.33333 25H9C9.35362 25 9.69276 24.8595 9.94281 24.6095C10.1929 24.3594 10.3333 24.0203 10.3333 23.6667V17C10.3333 16.6464 10.1929 16.3072 9.94281 16.0572C9.69276 15.8071 9.35362 15.6667 9 15.6667ZM20.3333 10.3333C20.9462 10.3333 21.553 10.2126 22.1192 9.97811C22.6854 9.74358 23.1998 9.39984 23.6332 8.9665C24.0665 8.53316 24.4102 8.01871 24.6448 7.45252C24.8793 6.88634 25 6.2795 25 5.66667C25 5.05383 24.8793 4.447 24.6448 3.88081C24.4102 3.31462 24.0665 2.80018 23.6332 2.36684C23.1998 1.9335 22.6854 1.58975 22.1192 1.35523C21.553 1.12071 20.9462 1 20.3333 1C19.0957 1 17.9087 1.49167 17.0335 2.36684C16.1583 3.24201 15.6667 4.42899 15.6667 5.66667C15.6667 6.90434 16.1583 8.09133 17.0335 8.9665C17.9087 9.84167 19.0957 10.3333 20.3333 10.3333ZM23.6667 15.6667H17C16.6464 15.6667 16.3072 15.8071 16.0572 16.0572C15.8071 16.3072 15.6667 16.6464 15.6667 17V23.6667C15.6667 24.0203 15.8071 24.3594 16.0572 24.6095C16.3072 24.8595 16.6464 25 17 25H23.6667C24.0203 25 24.3594 24.8595 24.6095 24.6095C24.8595 24.3594 25 24.0203 25 23.6667V17C25 16.6464 24.8595 16.3072 24.6095 16.0572C24.3594 15.8071 24.0203 15.6667 23.6667 15.6667Z" stroke="url(#paint0_linear_45_38)" stroke-width="2" stroke-linejoin="round"/>
<defs>
<linearGradient id="paint0_linear_45_38" x1="10.531" y1="75.9327" x2="-13.1795" y2="-23.8584" gradientUnits="userSpaceOnUse">
<stop offset="0.00961538" stop-color="#FF1414"/>
<stop offset="0.60101" stop-color="#ED2323"/>
<stop offset="0.816466" stop-color="#EA8533"/>
</linearGradient>
</defs>
</svg>
