<svg width="167" height="19" viewBox="0 0 167 19" fill="none" xmlns="http://www.w3.org/2000/svg">
<path d="M143.376 18.9858V3.64955C143.376 1.39707 144.386 0.00351637 146.408 0.00351637C147.303 0.00351637 147.996 0.292295 148.776 1.01424L160.398 11.7843V5.89215C160.398 2.63801 163.036 0 166.29 0V15.7124C166.29 17.936 165.038 18.9858 163.016 18.9858C162.121 18.9858 161.206 18.7546 160.398 18.0038L149.268 8.51089V13.0937C149.268 16.3478 146.63 18.9858 143.376 18.9858Z" fill="url(#paint0_linear_25_1350)"/>
<path d="M0 18.9858H12.9373C19.6081 18.9858 24.2233 15.1241 24.2233 9.49292C24.2233 3.94836 19.7525 0 12.9373 0H7.50702C5.18314 0 2.97851 1.02884 1.48581 2.80992L0 4.58279H12.7663C16.2606 4.58279 18.3311 6.74952 18.3311 9.49292C18.3311 12.6117 16.4627 14.403 12.7663 14.403H5.89216V10.8023C5.93906 8.93324 4.43674 7.39274 2.56711 7.39274H0V18.9858Z" fill="url(#paint1_linear_25_1350)"/>
<path d="M51.72 7.20152C51.72 10.2048 50.0789 12.2442 47.1333 13.3705L53.0294 18.9858H45.1732L40.2631 14.403H31.4248V18.9858H25.5327V17.6765C25.5327 13.3376 29.05 9.82026 33.3889 9.82026H42.5545C44.7492 9.82026 45.805 8.72113 45.805 7.27723C45.805 5.71782 44.7203 4.58279 42.5545 4.58279H25.5327L27.169 2.70104C28.6611 0.9852 30.8234 0 33.0973 0H42.0508C48.1152 0 51.72 2.7832 51.72 7.20152Z" fill="url(#paint2_linear_25_1350)"/>
<path d="M64.8137 18.9858H87.073L75.0347 2.16584C74.1973 0.952971 72.8236 0 71.0332 0C69.185 0 68.2195 1.01073 67.3821 2.16584L54.9934 18.9858H58.2732C60.7424 18.9858 63.068 17.8249 64.5521 15.8515L66.559 13.1828L71.0332 6.54684L76.598 14.403H72.2329C69.8221 14.403 67.5448 15.5099 66.0554 17.4055L64.8137 18.9858Z" fill="url(#paint3_linear_25_1350)"/>
<path d="M100.821 9.16557L112.606 0H107.506C105.721 0 103.99 0.607275 102.597 1.72192L99.8229 3.94183L95.0147 7.88367V5.97773C95.0147 2.67632 92.3384 0 89.037 0V18.9858C92.3013 18.9858 94.9572 16.3581 94.9921 13.094L95.0147 10.9736L102.574 17.1955C103.98 18.353 105.745 18.9858 107.567 18.9858H113.26L100.821 9.16557Z" fill="url(#paint4_linear_25_1350)"/>
<path d="M127.336 3.49639e-05C136.923 3.49639e-05 141.503 2.5508 141.503 9.30823C141.503 16.0657 136.923 18.9859 127.336 18.9859C117.777 18.9859 113.26 16.0945 113.26 9.30823C113.26 2.5508 117.749 3.49639e-05 127.336 3.49639e-05ZM127.336 4.58282C120.896 4.58282 119.209 5.40971 119.209 9.30823C119.209 13.2356 120.925 14.4031 127.336 14.4031C133.805 14.4031 135.576 13.2356 135.576 9.30823C135.576 5.38083 133.834 4.58282 127.336 4.58282Z" fill="url(#paint5_linear_25_1350)"/>
<defs>
<linearGradient id="paint0_linear_25_1350" x1="66.0375" y1="59.2776" x2="63.7768" y2="-24.0602" gradientUnits="userSpaceOnUse">
<stop offset="0.00961538" stop-color="#FF1414"/>
<stop offset="0.60101" stop-color="#ED2323"/>
<stop offset="0.816466" stop-color="#EA8533"/>
</linearGradient>
<linearGradient id="paint1_linear_25_1350" x1="66.0375" y1="59.2776" x2="63.7768" y2="-24.0602" gradientUnits="userSpaceOnUse">
<stop offset="0.00961538" stop-color="#FF1414"/>
<stop offset="0.60101" stop-color="#ED2323"/>
<stop offset="0.816466" stop-color="#EA8533"/>
</linearGradient>
<linearGradient id="paint2_linear_25_1350" x1="66.0375" y1="59.2776" x2="63.7768" y2="-24.0602" gradientUnits="userSpaceOnUse">
<stop offset="0.00961538" stop-color="#FF1414"/>
<stop offset="0.60101" stop-color="#ED2323"/>
<stop offset="0.816466" stop-color="#EA8533"/>
</linearGradient>
<linearGradient id="paint3_linear_25_1350" x1="66.0375" y1="59.2776" x2="63.7768" y2="-24.0602" gradientUnits="userSpaceOnUse">
<stop offset="0.00961538" stop-color="#FF1414"/>
<stop offset="0.60101" stop-color="#ED2323"/>
<stop offset="0.816466" stop-color="#EA8533"/>
</linearGradient>
<linearGradient id="paint4_linear_25_1350" x1="66.0375" y1="59.2776" x2="63.7768" y2="-24.0602" gradientUnits="userSpaceOnUse">
<stop offset="0.00961538" stop-color="#FF1414"/>
<stop offset="0.60101" stop-color="#ED2323"/>
<stop offset="0.816466" stop-color="#EA8533"/>
</linearGradient>
<linearGradient id="paint5_linear_25_1350" x1="66.0375" y1="59.2776" x2="63.7768" y2="-24.0602" gradientUnits="userSpaceOnUse">
<stop offset="0.00961538" stop-color="#FF1414"/>
<stop offset="0.60101" stop-color="#ED2323"/>
<stop offset="0.816466" stop-color="#EA8533"/>
</linearGradient>
</defs>
</svg>
